G04 PROTEUS GERBER X2 FILE*
%TF.GenerationSoftware,Labcenter,Proteus,8.12-SP2-Build31155*%
%TF.CreationDate,2022-11-29T14:37:22+00:00*%
%TF.FileFunction,Copper,L2,Bot*%
%TF.FilePolarity,Positive*%
%TF.Part,Single*%
%TF.SameCoordinates,{cdb8bdd9-3100-4a82-a298-9d7ddda5625f}*%
%FSLAX45Y45*%
%MOMM*%
G01*
%TA.AperFunction,Conductor*%
%ADD10C,0.400000*%
%TA.AperFunction,ViaPad*%
%ADD11C,1.000000*%
%TA.AperFunction,Conductor*%
%ADD12C,0.304800*%
%TA.AperFunction,ComponentPad*%
%ADD13R,2.032000X2.032000*%
%TA.AperFunction,NonMaterial*%
%ADD14C,0.203200*%
%TA.AperFunction,Profile*%
%ADD15C,0.203200*%
%TD.AperFunction*%
G36*
X-2398260Y+1278260D02*
X-2522068Y+1278260D01*
X-2429521Y+1370807D01*
X-2429521Y+2229193D01*
X-2580807Y+2380479D01*
X-2609849Y+2380479D01*
X-2429521Y+2560807D01*
X-2429521Y+3429193D01*
X-2550807Y+3550479D01*
X-2627921Y+3550479D01*
X-2627921Y+3632079D01*
X-2832407Y+3632079D01*
X-2970807Y+3770479D01*
X-4129193Y+3770479D01*
X-4220479Y+3679193D01*
X-4220479Y+3642079D01*
X-4302079Y+3642079D01*
X-4302079Y+3437593D01*
X-4470479Y+3269193D01*
X-4470479Y+2170807D01*
X-4369193Y+2069521D01*
X-4302079Y+2069521D01*
X-4302079Y+1987921D01*
X-3997921Y+1987921D01*
X-3997921Y+2546079D01*
X-4008081Y+2546079D01*
X-4008081Y+2587681D01*
X-3927017Y+2587681D01*
X-3581681Y+2933017D01*
X-3581681Y+2996379D01*
X-3496983Y+2911681D01*
X-3269621Y+2911681D01*
X-3460319Y+2720983D01*
X-3460319Y+1975017D01*
X-3347621Y+1862319D01*
X-3822983Y+1862319D01*
X-3948319Y+1736983D01*
X-3948319Y+1711919D01*
X-4077324Y+1711919D01*
X-3742191Y+2047052D01*
X-3692850Y+2047052D01*
X-3638454Y+2101448D01*
X-3638454Y+2178374D01*
X-3692850Y+2232770D01*
X-3769776Y+2232770D01*
X-3824172Y+2178374D01*
X-3824172Y+2135675D01*
X-4202319Y+1757528D01*
X-4202319Y+1711919D01*
X-4283919Y+1711919D01*
X-4283919Y+1428081D01*
X-3786079Y+1428081D01*
X-3786079Y+1417921D01*
X-3417593Y+1417921D01*
X-3277932Y+1278260D01*
X-4481740Y+1278260D01*
X-4481740Y+3813480D01*
X-2398260Y+3813480D01*
X-2398260Y+1278260D01*
G37*
G36*
X-2932079Y+3532407D02*
X-2932079Y+3073921D01*
X-2921919Y+3073921D01*
X-2921919Y+3032319D01*
X-3447017Y+3032319D01*
X-3581681Y+3166983D01*
X-3581681Y+3348081D01*
X-3448643Y+3348081D01*
X-3448643Y+3247148D01*
X-3481183Y+3214608D01*
X-3481183Y+3137682D01*
X-3426787Y+3083286D01*
X-3349861Y+3083286D01*
X-3295465Y+3137682D01*
X-3295465Y+3214608D01*
X-3328005Y+3247148D01*
X-3328005Y+3348081D01*
X-3246081Y+3348081D01*
X-3246081Y+3629521D01*
X-3029193Y+3629521D01*
X-2932079Y+3532407D01*
G37*
G36*
X-2570479Y+3370807D02*
X-2570479Y+2619193D01*
X-2727593Y+2462079D01*
X-2932079Y+2462079D01*
X-2932079Y+1903921D01*
X-2921919Y+1903921D01*
X-2921919Y+1862319D01*
X-3177017Y+1862319D01*
X-3339681Y+2024983D01*
X-3339681Y+2671017D01*
X-3099017Y+2911681D01*
X-2921919Y+2911681D01*
X-2921919Y+2778319D01*
X-3024106Y+2778319D01*
X-3055026Y+2809239D01*
X-3131952Y+2809239D01*
X-3186348Y+2754843D01*
X-3186348Y+2677917D01*
X-3131952Y+2623521D01*
X-3055026Y+2623521D01*
X-3020866Y+2657681D01*
X-2921919Y+2657681D01*
X-2921919Y+2576081D01*
X-2638081Y+2576081D01*
X-2638081Y+3073921D01*
X-2627921Y+3073921D01*
X-2627921Y+3409521D01*
X-2609193Y+3409521D01*
X-2570479Y+3370807D01*
G37*
G36*
X-3702319Y+3180985D02*
X-3702319Y+2982983D01*
X-3976983Y+2708319D01*
X-4008081Y+2708319D01*
X-4008081Y+3043919D01*
X-4089681Y+3043919D01*
X-4089681Y+3105027D01*
X-4057868Y+3136840D01*
X-4057868Y+3213766D01*
X-4112264Y+3268162D01*
X-4189190Y+3268162D01*
X-4243586Y+3213766D01*
X-4243586Y+3136840D01*
X-4210319Y+3103573D01*
X-4210319Y+3043919D01*
X-4291919Y+3043919D01*
X-4291919Y+2546079D01*
X-4302079Y+2546079D01*
X-4302079Y+2210479D01*
X-4310807Y+2210479D01*
X-4329521Y+2229193D01*
X-4329521Y+3210807D01*
X-4202407Y+3337921D01*
X-3743921Y+3337921D01*
X-3743921Y+3348081D01*
X-3702319Y+3348081D01*
X-3702319Y+3180985D01*
G37*
G36*
X-2570479Y+2170807D02*
X-2570479Y+1429193D01*
X-2629193Y+1370479D01*
X-3170807Y+1370479D01*
X-3227921Y+1427593D01*
X-3227921Y+1722079D01*
X-3786079Y+1722079D01*
X-3786079Y+1711919D01*
X-3802779Y+1711919D01*
X-3773017Y+1741681D01*
X-2921919Y+1741681D01*
X-2921919Y+1608319D01*
X-3018997Y+1608319D01*
X-3051537Y+1640859D01*
X-3128463Y+1640859D01*
X-3182859Y+1586463D01*
X-3182859Y+1509537D01*
X-3128463Y+1455141D01*
X-3051537Y+1455141D01*
X-3018997Y+1487681D01*
X-2921919Y+1487681D01*
X-2921919Y+1406081D01*
X-2638081Y+1406081D01*
X-2638081Y+1903921D01*
X-2627921Y+1903921D01*
X-2627921Y+2228249D01*
X-2570479Y+2170807D01*
G37*
D10*
X-4150000Y+2140000D02*
X-4340000Y+2140000D01*
X-4400000Y+2200000D01*
X-4400000Y+3240000D01*
X-4150000Y+3490000D01*
X-4150000Y+3650000D01*
X-4100000Y+3700000D01*
X-3000000Y+3700000D01*
X-2780000Y+3480000D01*
X-2580000Y+3480000D01*
X-2500000Y+3400000D01*
X-2500000Y+2590000D01*
X-2780000Y+2310000D01*
X-2610000Y+2310000D01*
X-2500000Y+2200000D01*
X-2500000Y+1400000D01*
X-2600000Y+1300000D01*
X-3200000Y+1300000D01*
X-3380000Y+1480000D01*
X-3380000Y+1570000D01*
X-3202000Y+1802000D02*
X-3400000Y+2000000D01*
X-3400000Y+2696000D01*
X-3124000Y+2972000D01*
X-2780000Y+1802000D02*
X-3002000Y+1802000D01*
X-3202000Y+1802000D01*
X-3798000Y+1802000D01*
X-3800000Y+1800000D01*
X-3888000Y+1712000D01*
X-3888000Y+1570000D01*
X-3124000Y+2972000D02*
X-2780000Y+2972000D01*
X-4150000Y+2648000D02*
X-3952000Y+2648000D01*
X-3900000Y+2700000D01*
X-3642000Y+2958000D01*
X-3642000Y+3142000D01*
X-3642000Y+3156000D01*
X-3642000Y+3490000D01*
X-3642000Y+3142000D02*
X-3472000Y+2972000D01*
X-3124000Y+2972000D01*
X-4150000Y+2902000D02*
X-4150000Y+3174576D01*
X-4150727Y+3175303D01*
X-3388324Y+3176145D02*
X-3388324Y+3489676D01*
X-3388000Y+3490000D01*
X-2780000Y+1548000D02*
X-3090000Y+1548000D01*
X-4142000Y+1570000D02*
X-4142000Y+1732545D01*
X-3734634Y+2139911D01*
X-3731313Y+2139911D01*
X-2780000Y+2718000D02*
X-3091869Y+2718000D01*
X-3093489Y+2716380D01*
D11*
X-4150727Y+3175303D03*
X-3090000Y+1548000D03*
X-3731313Y+2139911D03*
X-3388324Y+3176145D03*
X-3093489Y+2716380D03*
D10*
X-2398260Y+1278260D02*
X-2522068Y+1278260D01*
X-2429521Y+1370807D01*
X-2429521Y+2229193D01*
X-2580807Y+2380479D01*
X-2609849Y+2380479D01*
X-2429521Y+2560807D01*
X-2429521Y+3429193D01*
X-2550807Y+3550479D01*
X-2627921Y+3550479D01*
X-2627921Y+3632079D01*
X-2832407Y+3632079D01*
X-2970807Y+3770479D01*
X-4129193Y+3770479D01*
X-4220479Y+3679193D01*
X-4220479Y+3642079D01*
X-4302079Y+3642079D01*
X-4302079Y+3437593D01*
X-4470479Y+3269193D01*
X-4470479Y+2170807D01*
X-4369193Y+2069521D01*
X-4302079Y+2069521D01*
X-4302079Y+1987921D01*
X-3997921Y+1987921D01*
X-3997921Y+2546079D01*
X-4008081Y+2546079D01*
X-4008081Y+2587681D01*
X-3927017Y+2587681D01*
X-3581681Y+2933017D01*
X-3581681Y+2996379D01*
X-3496983Y+2911681D01*
X-3269621Y+2911681D01*
X-3460319Y+2720983D01*
X-3460319Y+1975017D01*
X-3347621Y+1862319D01*
X-3822983Y+1862319D01*
X-3948319Y+1736983D01*
X-3948319Y+1711919D01*
X-4077324Y+1711919D01*
X-3742191Y+2047052D01*
X-3692850Y+2047052D01*
X-3638454Y+2101448D01*
X-3638454Y+2178374D01*
X-3692850Y+2232770D01*
X-3769776Y+2232770D01*
X-3824172Y+2178374D01*
X-3824172Y+2135675D01*
X-4202319Y+1757528D01*
X-4202319Y+1711919D01*
X-4283919Y+1711919D01*
X-4283919Y+1428081D01*
X-3786079Y+1428081D01*
X-3786079Y+1417921D01*
X-3417593Y+1417921D01*
X-3277932Y+1278260D01*
X-4481740Y+1278260D01*
X-4481740Y+3813480D01*
X-2398260Y+3813480D01*
X-2398260Y+1278260D01*
X-2932079Y+3532407D02*
X-2932079Y+3073921D01*
X-2921919Y+3073921D01*
X-2921919Y+3032319D01*
X-3447017Y+3032319D01*
X-3581681Y+3166983D01*
X-3581681Y+3348081D01*
X-3448643Y+3348081D01*
X-3448643Y+3247148D01*
X-3481183Y+3214608D01*
X-3481183Y+3137682D01*
X-3426787Y+3083286D01*
X-3349861Y+3083286D01*
X-3295465Y+3137682D01*
X-3295465Y+3214608D01*
X-3328005Y+3247148D01*
X-3328005Y+3348081D01*
X-3246081Y+3348081D01*
X-3246081Y+3629521D01*
X-3029193Y+3629521D01*
X-2932079Y+3532407D01*
X-2570479Y+3370807D02*
X-2570479Y+2619193D01*
X-2727593Y+2462079D01*
X-2932079Y+2462079D01*
X-2932079Y+1903921D01*
X-2921919Y+1903921D01*
X-2921919Y+1862319D01*
X-3177017Y+1862319D01*
X-3339681Y+2024983D01*
X-3339681Y+2671017D01*
X-3099017Y+2911681D01*
X-2921919Y+2911681D01*
X-2921919Y+2778319D01*
X-3024106Y+2778319D01*
X-3055026Y+2809239D01*
X-3131952Y+2809239D01*
X-3186348Y+2754843D01*
X-3186348Y+2677917D01*
X-3131952Y+2623521D01*
X-3055026Y+2623521D01*
X-3020866Y+2657681D01*
X-2921919Y+2657681D01*
X-2921919Y+2576081D01*
X-2638081Y+2576081D01*
X-2638081Y+3073921D01*
X-2627921Y+3073921D01*
X-2627921Y+3409521D01*
X-2609193Y+3409521D01*
X-2570479Y+3370807D01*
X-3702319Y+3180985D02*
X-3702319Y+2982983D01*
X-3976983Y+2708319D01*
X-4008081Y+2708319D01*
X-4008081Y+3043919D01*
X-4089681Y+3043919D01*
X-4089681Y+3105027D01*
X-4057868Y+3136840D01*
X-4057868Y+3213766D01*
X-4112264Y+3268162D01*
X-4189190Y+3268162D01*
X-4243586Y+3213766D01*
X-4243586Y+3136840D01*
X-4210319Y+3103573D01*
X-4210319Y+3043919D01*
X-4291919Y+3043919D01*
X-4291919Y+2546079D01*
X-4302079Y+2546079D01*
X-4302079Y+2210479D01*
X-4310807Y+2210479D01*
X-4329521Y+2229193D01*
X-4329521Y+3210807D01*
X-4202407Y+3337921D01*
X-3743921Y+3337921D01*
X-3743921Y+3348081D01*
X-3702319Y+3348081D01*
X-3702319Y+3180985D01*
X-2570479Y+2170807D02*
X-2570479Y+1429193D01*
X-2629193Y+1370479D01*
X-3170807Y+1370479D01*
X-3227921Y+1427593D01*
X-3227921Y+1722079D01*
X-3786079Y+1722079D01*
X-3786079Y+1711919D01*
X-3802779Y+1711919D01*
X-3773017Y+1741681D01*
X-2921919Y+1741681D01*
X-2921919Y+1608319D01*
X-3018997Y+1608319D01*
X-3051537Y+1640859D01*
X-3128463Y+1640859D01*
X-3182859Y+1586463D01*
X-3182859Y+1509537D01*
X-3128463Y+1455141D01*
X-3051537Y+1455141D01*
X-3018997Y+1487681D01*
X-2921919Y+1487681D01*
X-2921919Y+1406081D01*
X-2638081Y+1406081D01*
X-2638081Y+1903921D01*
X-2627921Y+1903921D01*
X-2627921Y+2228249D01*
X-2570479Y+2170807D01*
D12*
X-3997921Y+2394000D02*
X-4150000Y+2394000D01*
X-4302079Y+2394000D02*
X-4150000Y+2394000D01*
X-3896000Y+3337921D02*
X-3896000Y+3490000D01*
X-2932079Y+3226000D02*
X-2780000Y+3226000D01*
X-2627921Y+3226000D02*
X-2780000Y+3226000D01*
X-2932079Y+2056000D02*
X-2780000Y+2056000D01*
X-2627921Y+2056000D02*
X-2780000Y+2056000D01*
X-3634000Y+1722079D02*
X-3634000Y+1570000D01*
X-3634000Y+1417921D02*
X-3634000Y+1570000D01*
D13*
X-4150000Y+2140000D03*
X-4150000Y+2394000D03*
X-4150000Y+2648000D03*
X-4150000Y+2902000D03*
X-4150000Y+3490000D03*
X-3896000Y+3490000D03*
X-3642000Y+3490000D03*
X-3388000Y+3490000D03*
X-2780000Y+3480000D03*
X-2780000Y+3226000D03*
X-2780000Y+2972000D03*
X-2780000Y+2718000D03*
X-2780000Y+2310000D03*
X-2780000Y+2056000D03*
X-2780000Y+1802000D03*
X-2780000Y+1548000D03*
X-3380000Y+1570000D03*
X-3634000Y+1570000D03*
X-3888000Y+1570000D03*
X-4142000Y+1570000D03*
D14*
X-4550000Y+4060000D02*
X-2320000Y+4060000D01*
X-4550000Y+4060000D02*
X-4423000Y+3933000D01*
X-4550000Y+4060000D02*
X-4423000Y+4187000D01*
X-2320000Y+4060000D02*
X-2447000Y+4187000D01*
X-2320000Y+4060000D02*
X-2447000Y+3933000D01*
X-3403250Y+4060000D02*
X-3403359Y+4062634D01*
X-3404249Y+4067903D01*
X-3406111Y+4073172D01*
X-3409154Y+4078441D01*
X-3413809Y+4083643D01*
X-3419078Y+4087469D01*
X-3424347Y+4089909D01*
X-3429616Y+4091290D01*
X-3434885Y+4091750D01*
X-3435000Y+4091750D01*
X-3466750Y+4060000D02*
X-3466641Y+4062634D01*
X-3465751Y+4067903D01*
X-3463889Y+4073172D01*
X-3460846Y+4078441D01*
X-3456191Y+4083643D01*
X-3450922Y+4087469D01*
X-3445653Y+4089909D01*
X-3440384Y+4091290D01*
X-3435115Y+4091750D01*
X-3435000Y+4091750D01*
X-3466750Y+4060000D02*
X-3466641Y+4057366D01*
X-3465751Y+4052097D01*
X-3463889Y+4046828D01*
X-3460846Y+4041559D01*
X-3456191Y+4036357D01*
X-3450922Y+4032531D01*
X-3445653Y+4030091D01*
X-3440384Y+4028710D01*
X-3435115Y+4028250D01*
X-3435000Y+4028250D01*
X-3403250Y+4060000D02*
X-3403359Y+4057366D01*
X-3404249Y+4052097D01*
X-3406111Y+4046828D01*
X-3409154Y+4041559D01*
X-3413809Y+4036357D01*
X-3419078Y+4032531D01*
X-3424347Y+4030091D01*
X-3429616Y+4028710D01*
X-3434885Y+4028250D01*
X-3435000Y+4028250D01*
X-3800125Y+4236840D02*
X-3784250Y+4252080D01*
X-3736625Y+4252080D01*
X-3720750Y+4236840D01*
X-3720750Y+4221600D01*
X-3736625Y+4206360D01*
X-3784250Y+4206360D01*
X-3800125Y+4191120D01*
X-3800125Y+4160640D01*
X-3720750Y+4160640D01*
X-3673125Y+4236840D02*
X-3657250Y+4252080D01*
X-3609625Y+4252080D01*
X-3593750Y+4236840D01*
X-3593750Y+4221600D01*
X-3609625Y+4206360D01*
X-3657250Y+4206360D01*
X-3673125Y+4191120D01*
X-3673125Y+4160640D01*
X-3593750Y+4160640D01*
X-3514375Y+4175880D02*
X-3498500Y+4175880D01*
X-3498500Y+4160640D01*
X-3514375Y+4160640D01*
X-3514375Y+4175880D01*
X-3419125Y+4236840D02*
X-3403250Y+4252080D01*
X-3355625Y+4252080D01*
X-3339750Y+4236840D01*
X-3339750Y+4221600D01*
X-3355625Y+4206360D01*
X-3339750Y+4191120D01*
X-3339750Y+4175880D01*
X-3355625Y+4160640D01*
X-3403250Y+4160640D01*
X-3419125Y+4175880D01*
X-3387375Y+4206360D02*
X-3355625Y+4206360D01*
X-3308000Y+4160640D02*
X-3308000Y+4221600D01*
X-3308000Y+4206360D02*
X-3292125Y+4221600D01*
X-3260375Y+4191120D01*
X-3228625Y+4221600D01*
X-3212750Y+4206360D01*
X-3212750Y+4160640D01*
X-3181000Y+4160640D02*
X-3181000Y+4221600D01*
X-3181000Y+4206360D02*
X-3165125Y+4221600D01*
X-3133375Y+4191120D01*
X-3101625Y+4221600D01*
X-3085750Y+4206360D01*
X-3085750Y+4160640D01*
X-5010000Y+3870000D02*
X-5010000Y+1200000D01*
X-5010000Y+3870000D02*
X-5137000Y+3743000D01*
X-5010000Y+3870000D02*
X-4883000Y+3743000D01*
X-5010000Y+1200000D02*
X-4883000Y+1327000D01*
X-5010000Y+1200000D02*
X-5137000Y+1327000D01*
X-4978250Y+2535000D02*
X-4978359Y+2537634D01*
X-4979249Y+2542903D01*
X-4981111Y+2548172D01*
X-4984154Y+2553441D01*
X-4988809Y+2558643D01*
X-4994078Y+2562469D01*
X-4999347Y+2564909D01*
X-5004616Y+2566290D01*
X-5009885Y+2566750D01*
X-5010000Y+2566750D01*
X-5041750Y+2535000D02*
X-5041641Y+2537634D01*
X-5040751Y+2542903D01*
X-5038889Y+2548172D01*
X-5035846Y+2553441D01*
X-5031191Y+2558643D01*
X-5025922Y+2562469D01*
X-5020653Y+2564909D01*
X-5015384Y+2566290D01*
X-5010115Y+2566750D01*
X-5010000Y+2566750D01*
X-5041750Y+2535000D02*
X-5041641Y+2532366D01*
X-5040751Y+2527097D01*
X-5038889Y+2521828D01*
X-5035846Y+2516559D01*
X-5031191Y+2511357D01*
X-5025922Y+2507531D01*
X-5020653Y+2505091D01*
X-5015384Y+2503710D01*
X-5010115Y+2503250D01*
X-5010000Y+2503250D01*
X-4978250Y+2535000D02*
X-4978359Y+2532366D01*
X-4979249Y+2527097D01*
X-4981111Y+2521828D01*
X-4984154Y+2516559D01*
X-4988809Y+2511357D01*
X-4994078Y+2507531D01*
X-4999347Y+2505091D01*
X-5004616Y+2503710D01*
X-5009885Y+2503250D01*
X-5010000Y+2503250D01*
X-4823160Y+2900125D02*
X-4807920Y+2884250D01*
X-4807920Y+2836625D01*
X-4823160Y+2820750D01*
X-4838400Y+2820750D01*
X-4853640Y+2836625D01*
X-4853640Y+2884250D01*
X-4868880Y+2900125D01*
X-4899360Y+2900125D01*
X-4899360Y+2820750D01*
X-4823160Y+2693750D02*
X-4807920Y+2709625D01*
X-4807920Y+2757250D01*
X-4823160Y+2773125D01*
X-4884120Y+2773125D01*
X-4899360Y+2757250D01*
X-4899360Y+2709625D01*
X-4884120Y+2693750D01*
X-4868880Y+2693750D01*
X-4853640Y+2709625D01*
X-4853640Y+2773125D01*
X-4884120Y+2614375D02*
X-4884120Y+2598500D01*
X-4899360Y+2598500D01*
X-4899360Y+2614375D01*
X-4884120Y+2614375D01*
X-4807920Y+2519125D02*
X-4807920Y+2439750D01*
X-4823160Y+2439750D01*
X-4899360Y+2519125D01*
X-4899360Y+2408000D02*
X-4838400Y+2408000D01*
X-4853640Y+2408000D02*
X-4838400Y+2392125D01*
X-4868880Y+2360375D01*
X-4838400Y+2328625D01*
X-4853640Y+2312750D01*
X-4899360Y+2312750D01*
X-4899360Y+2281000D02*
X-4838400Y+2281000D01*
X-4853640Y+2281000D02*
X-4838400Y+2265125D01*
X-4868880Y+2233375D01*
X-4838400Y+2201625D01*
X-4853640Y+2185750D01*
X-4899360Y+2185750D01*
D15*
X-4550000Y+1210000D02*
X-2330000Y+1210000D01*
X-2330000Y+3881740D01*
X-4550000Y+3881740D01*
X-4550000Y+1210000D01*
M02*
