G04 PROTEUS GERBER X2 FILE*
%TF.GenerationSoftware,Labcenter,Proteus,8.12-SP2-Build31155*%
%TF.CreationDate,2022-11-29T14:37:22+00:00*%
%TF.FileFunction,Legend,Top*%
%TF.FilePolarity,Positive*%
%TF.Part,Single*%
%TF.SameCoordinates,{cdb8bdd9-3100-4a82-a298-9d7ddda5625f}*%
%FSLAX45Y45*%
%MOMM*%
G01*
%TA.AperFunction,NonMaterial*%
%ADD14C,0.203200*%
%TA.AperFunction,Material*%
%ADD16C,0.203200*%
%TA.AperFunction,Profile*%
%ADD15C,0.203200*%
%TD.AperFunction*%
D14*
X-4550000Y+4060000D02*
X-2320000Y+4060000D01*
X-4550000Y+4060000D02*
X-4423000Y+3933000D01*
X-4550000Y+4060000D02*
X-4423000Y+4187000D01*
X-2320000Y+4060000D02*
X-2447000Y+4187000D01*
X-2320000Y+4060000D02*
X-2447000Y+3933000D01*
X-3403250Y+4060000D02*
X-3403359Y+4062634D01*
X-3404249Y+4067903D01*
X-3406111Y+4073172D01*
X-3409154Y+4078441D01*
X-3413809Y+4083643D01*
X-3419078Y+4087469D01*
X-3424347Y+4089909D01*
X-3429616Y+4091290D01*
X-3434885Y+4091750D01*
X-3435000Y+4091750D01*
X-3466750Y+4060000D02*
X-3466641Y+4062634D01*
X-3465751Y+4067903D01*
X-3463889Y+4073172D01*
X-3460846Y+4078441D01*
X-3456191Y+4083643D01*
X-3450922Y+4087469D01*
X-3445653Y+4089909D01*
X-3440384Y+4091290D01*
X-3435115Y+4091750D01*
X-3435000Y+4091750D01*
X-3466750Y+4060000D02*
X-3466641Y+4057366D01*
X-3465751Y+4052097D01*
X-3463889Y+4046828D01*
X-3460846Y+4041559D01*
X-3456191Y+4036357D01*
X-3450922Y+4032531D01*
X-3445653Y+4030091D01*
X-3440384Y+4028710D01*
X-3435115Y+4028250D01*
X-3435000Y+4028250D01*
X-3403250Y+4060000D02*
X-3403359Y+4057366D01*
X-3404249Y+4052097D01*
X-3406111Y+4046828D01*
X-3409154Y+4041559D01*
X-3413809Y+4036357D01*
X-3419078Y+4032531D01*
X-3424347Y+4030091D01*
X-3429616Y+4028710D01*
X-3434885Y+4028250D01*
X-3435000Y+4028250D01*
X-3800125Y+4236840D02*
X-3784250Y+4252080D01*
X-3736625Y+4252080D01*
X-3720750Y+4236840D01*
X-3720750Y+4221600D01*
X-3736625Y+4206360D01*
X-3784250Y+4206360D01*
X-3800125Y+4191120D01*
X-3800125Y+4160640D01*
X-3720750Y+4160640D01*
X-3673125Y+4236840D02*
X-3657250Y+4252080D01*
X-3609625Y+4252080D01*
X-3593750Y+4236840D01*
X-3593750Y+4221600D01*
X-3609625Y+4206360D01*
X-3657250Y+4206360D01*
X-3673125Y+4191120D01*
X-3673125Y+4160640D01*
X-3593750Y+4160640D01*
X-3514375Y+4175880D02*
X-3498500Y+4175880D01*
X-3498500Y+4160640D01*
X-3514375Y+4160640D01*
X-3514375Y+4175880D01*
X-3419125Y+4236840D02*
X-3403250Y+4252080D01*
X-3355625Y+4252080D01*
X-3339750Y+4236840D01*
X-3339750Y+4221600D01*
X-3355625Y+4206360D01*
X-3339750Y+4191120D01*
X-3339750Y+4175880D01*
X-3355625Y+4160640D01*
X-3403250Y+4160640D01*
X-3419125Y+4175880D01*
X-3387375Y+4206360D02*
X-3355625Y+4206360D01*
X-3308000Y+4160640D02*
X-3308000Y+4221600D01*
X-3308000Y+4206360D02*
X-3292125Y+4221600D01*
X-3260375Y+4191120D01*
X-3228625Y+4221600D01*
X-3212750Y+4206360D01*
X-3212750Y+4160640D01*
X-3181000Y+4160640D02*
X-3181000Y+4221600D01*
X-3181000Y+4206360D02*
X-3165125Y+4221600D01*
X-3133375Y+4191120D01*
X-3101625Y+4221600D01*
X-3085750Y+4206360D01*
X-3085750Y+4160640D01*
X-5010000Y+3870000D02*
X-5010000Y+1200000D01*
X-5010000Y+3870000D02*
X-5137000Y+3743000D01*
X-5010000Y+3870000D02*
X-4883000Y+3743000D01*
X-5010000Y+1200000D02*
X-4883000Y+1327000D01*
X-5010000Y+1200000D02*
X-5137000Y+1327000D01*
X-4978250Y+2535000D02*
X-4978359Y+2537634D01*
X-4979249Y+2542903D01*
X-4981111Y+2548172D01*
X-4984154Y+2553441D01*
X-4988809Y+2558643D01*
X-4994078Y+2562469D01*
X-4999347Y+2564909D01*
X-5004616Y+2566290D01*
X-5009885Y+2566750D01*
X-5010000Y+2566750D01*
X-5041750Y+2535000D02*
X-5041641Y+2537634D01*
X-5040751Y+2542903D01*
X-5038889Y+2548172D01*
X-5035846Y+2553441D01*
X-5031191Y+2558643D01*
X-5025922Y+2562469D01*
X-5020653Y+2564909D01*
X-5015384Y+2566290D01*
X-5010115Y+2566750D01*
X-5010000Y+2566750D01*
X-5041750Y+2535000D02*
X-5041641Y+2532366D01*
X-5040751Y+2527097D01*
X-5038889Y+2521828D01*
X-5035846Y+2516559D01*
X-5031191Y+2511357D01*
X-5025922Y+2507531D01*
X-5020653Y+2505091D01*
X-5015384Y+2503710D01*
X-5010115Y+2503250D01*
X-5010000Y+2503250D01*
X-4978250Y+2535000D02*
X-4978359Y+2532366D01*
X-4979249Y+2527097D01*
X-4981111Y+2521828D01*
X-4984154Y+2516559D01*
X-4988809Y+2511357D01*
X-4994078Y+2507531D01*
X-4999347Y+2505091D01*
X-5004616Y+2503710D01*
X-5009885Y+2503250D01*
X-5010000Y+2503250D01*
X-4823160Y+2900125D02*
X-4807920Y+2884250D01*
X-4807920Y+2836625D01*
X-4823160Y+2820750D01*
X-4838400Y+2820750D01*
X-4853640Y+2836625D01*
X-4853640Y+2884250D01*
X-4868880Y+2900125D01*
X-4899360Y+2900125D01*
X-4899360Y+2820750D01*
X-4823160Y+2693750D02*
X-4807920Y+2709625D01*
X-4807920Y+2757250D01*
X-4823160Y+2773125D01*
X-4884120Y+2773125D01*
X-4899360Y+2757250D01*
X-4899360Y+2709625D01*
X-4884120Y+2693750D01*
X-4868880Y+2693750D01*
X-4853640Y+2709625D01*
X-4853640Y+2773125D01*
X-4884120Y+2614375D02*
X-4884120Y+2598500D01*
X-4899360Y+2598500D01*
X-4899360Y+2614375D01*
X-4884120Y+2614375D01*
X-4807920Y+2519125D02*
X-4807920Y+2439750D01*
X-4823160Y+2439750D01*
X-4899360Y+2519125D01*
X-4899360Y+2408000D02*
X-4838400Y+2408000D01*
X-4853640Y+2408000D02*
X-4838400Y+2392125D01*
X-4868880Y+2360375D01*
X-4838400Y+2328625D01*
X-4853640Y+2312750D01*
X-4899360Y+2312750D01*
X-4899360Y+2281000D02*
X-4838400Y+2281000D01*
X-4853640Y+2281000D02*
X-4838400Y+2265125D01*
X-4868880Y+2233375D01*
X-4838400Y+2201625D01*
X-4853640Y+2185750D01*
X-4899360Y+2185750D01*
D16*
X-4277000Y+2013000D02*
X-4023000Y+2013000D01*
X-4023000Y+3029000D01*
X-4277000Y+3029000D01*
X-4277000Y+2013000D01*
X-4348120Y+2394000D02*
X-4332880Y+2394000D01*
X-4317640Y+2409875D01*
X-4317640Y+2473375D01*
X-4332880Y+2489250D01*
X-4409080Y+2489250D01*
X-4378600Y+2552750D02*
X-4409080Y+2584500D01*
X-4317640Y+2584500D01*
X-4277000Y+3363000D02*
X-3261000Y+3363000D01*
X-3261000Y+3617000D01*
X-4277000Y+3617000D01*
X-4277000Y+3363000D01*
X-3896000Y+3688120D02*
X-3896000Y+3672880D01*
X-3880125Y+3657640D01*
X-3816625Y+3657640D01*
X-3800750Y+3672880D01*
X-3800750Y+3749080D01*
X-3753125Y+3733840D02*
X-3737250Y+3749080D01*
X-3689625Y+3749080D01*
X-3673750Y+3733840D01*
X-3673750Y+3718600D01*
X-3689625Y+3703360D01*
X-3737250Y+3703360D01*
X-3753125Y+3688120D01*
X-3753125Y+3657640D01*
X-3673750Y+3657640D01*
X-2907000Y+2591000D02*
X-2653000Y+2591000D01*
X-2653000Y+3607000D01*
X-2907000Y+3607000D01*
X-2907000Y+2591000D01*
X-2551400Y+2972000D02*
X-2536160Y+2972000D01*
X-2520920Y+2987875D01*
X-2520920Y+3051375D01*
X-2536160Y+3067250D01*
X-2612360Y+3067250D01*
X-2597120Y+3114875D02*
X-2612360Y+3130750D01*
X-2612360Y+3178375D01*
X-2597120Y+3194250D01*
X-2581880Y+3194250D01*
X-2566640Y+3178375D01*
X-2551400Y+3194250D01*
X-2536160Y+3194250D01*
X-2520920Y+3178375D01*
X-2520920Y+3130750D01*
X-2536160Y+3114875D01*
X-2566640Y+3146625D02*
X-2566640Y+3178375D01*
X-2907000Y+1421000D02*
X-2653000Y+1421000D01*
X-2653000Y+2437000D01*
X-2907000Y+2437000D01*
X-2907000Y+1421000D01*
X-2551400Y+1802000D02*
X-2536160Y+1802000D01*
X-2520920Y+1817875D01*
X-2520920Y+1881375D01*
X-2536160Y+1897250D01*
X-2612360Y+1897250D01*
X-2551400Y+2024250D02*
X-2551400Y+1929000D01*
X-2612360Y+1992500D01*
X-2520920Y+1992500D01*
X-4269000Y+1443000D02*
X-3253000Y+1443000D01*
X-3253000Y+1697000D01*
X-4269000Y+1697000D01*
X-4269000Y+1443000D01*
X-3888000Y+1341400D02*
X-3888000Y+1326160D01*
X-3872125Y+1310920D01*
X-3808625Y+1310920D01*
X-3792750Y+1326160D01*
X-3792750Y+1402360D01*
X-3665750Y+1402360D02*
X-3745125Y+1402360D01*
X-3745125Y+1371880D01*
X-3681625Y+1371880D01*
X-3665750Y+1356640D01*
X-3665750Y+1326160D01*
X-3681625Y+1310920D01*
X-3729250Y+1310920D01*
X-3745125Y+1326160D01*
D15*
X-4550000Y+1210000D02*
X-2330000Y+1210000D01*
X-2330000Y+3881740D01*
X-4550000Y+3881740D01*
X-4550000Y+1210000D01*
D16*
X-4370000Y+3330000D02*
X-4020000Y+3330000D01*
X-4020000Y+3820000D01*
X-4370000Y+3820000D01*
X-4370000Y+3330000D01*
X-4481740Y+1950000D02*
X-3970000Y+1950000D01*
X-3970000Y+2270000D01*
X-4481740Y+2270000D01*
X-4481740Y+1950000D01*
X-3510000Y+1270000D02*
X-3150000Y+1270000D01*
X-3150000Y+1730000D01*
X-3510000Y+1730000D01*
X-3510000Y+1270000D01*
X-2960000Y+2180000D02*
X-2398260Y+2180000D01*
X-2398260Y+2500000D01*
X-2960000Y+2500000D01*
X-2960000Y+2180000D01*
X-2960000Y+3350000D02*
X-2398260Y+3350000D01*
X-2398260Y+3670000D01*
X-2960000Y+3670000D01*
X-2960000Y+3350000D01*
M02*
